<svg width="92" height="132" viewBox="0 0 92 132" fill="none" xmlns="http://www.w3.org/2000/svg">
<path d="M122.024 18.4762C113.818 18.4762 107.143 11.8006 107.143 3.59524C107.143 1.95179 105.81 0.619049 104.167 0.619049H20.8333C19.1899 0.619049 17.8571 1.95179 17.8571 3.59524C17.8571 11.8006 11.1815 18.4762 2.97619 18.4762C1.33274 18.4762 0 19.8089 0 21.4524V70.0208C0 107.871 24.6711 141.787 61.6452 152.875C61.9241 152.958 62.2119 153 62.5 153C62.7881 153 63.0765 152.958 63.3551 152.874C99.5283 142.024 125 108.699 125 70.0208V21.4524C125 19.8089 123.667 18.4762 122.024 18.4762ZM119.048 70.0208C119.048 105.571 96.3628 136.358 62.5 146.912C28.9071 136.442 5.95238 105.376 5.95238 70.0208V24.2167C15.0628 22.9077 22.2887 15.6818 23.5976 6.57143H101.402C102.711 15.6818 109.937 22.9077 119.048 24.2167V70.0208Z" fill="#FAF4F8"/>
</svg>
