<svg width="64" height="64" viewBox="0 0 64 64" fill="none" xmlns="http://www.w3.org/2000/svg">
<path d="M8.09143 53.6021C2.12795 46.6227 -1.01072 37.1951 0.291824 27.5547C1.57868 17.9295 7.32245 8.10654 16.2991 3.37756C25.2757 -1.36664 37.4851 -1.00169 47.2307 3.77291C56.9919 8.5323 64.2894 17.6862 63.9912 25.8364C63.7087 33.9867 58.9207 43.0018 52.2667 50.1333C45.6127 57.2496 37.0928 62.4823 29.968 63.7747C22.8589 65.0824 14.0549 60.5663 8.09143 53.6021Z" fill="#FEF5EF"/>
<mask id="path-2-outside-1" maskUnits="userSpaceOnUse" x="15" y="15" width="34" height="34" fill="black">
<rect fill="white" x="15" y="15" width="34" height="34"/>
<path d="M47.68 31.536L41.6 28.9104V17.6C41.6 16.7163 40.8836 16 40 16H19.7333C18.8497 16 18.1333 16.7163 18.1333 17.6V18.1333H17.6C16.7163 18.1333 16 18.8497 16 19.7333V46.4C16 47.2836 16.7163 48 17.6 48H37.8667C38.2981 47.999 38.7108 47.8234 39.0107 47.5131L39.448 47.824C39.7786 48.0587 40.2214 48.0587 40.552 47.824L45.712 44.1509C47.1424 43.1357 47.9945 41.4922 48 39.7381V32.0256C48.0003 31.8132 47.8746 31.6209 47.68 31.536ZM19.2 17.6C19.2 17.3054 19.4388 17.0667 19.7333 17.0667H40C40.2945 17.0667 40.5333 17.3054 40.5333 17.6V28.4496L40.2133 28.3104C40.0785 28.2523 39.9257 28.2523 39.7909 28.3104L39.4709 28.4496V25.0667C39.4709 25.0549 39.4651 25.0437 39.464 25.032C39.4613 24.9873 39.4527 24.9432 39.4384 24.9008C39.4347 24.8885 39.4352 24.8757 39.4304 24.864C39.4256 24.8523 39.4219 24.8523 39.4192 24.8459C39.3932 24.7878 39.3571 24.7349 39.3125 24.6896L32.9125 18.2896C32.8672 18.245 32.8143 18.2089 32.7563 18.1829C32.7493 18.1797 32.7445 18.1744 32.7381 18.1717C32.7317 18.1691 32.7136 18.1675 32.7019 18.1637C32.6589 18.1494 32.6143 18.1406 32.5691 18.1376C32.5557 18.1392 32.5451 18.1333 32.5333 18.1333H19.2V17.6ZM33.0667 19.9541L37.6459 24.5333H33.6C33.3054 24.5333 33.0667 24.2945 33.0667 24V19.9541ZM37.8667 46.9333H17.6C17.3054 46.9333 17.0667 46.6945 17.0667 46.4V19.7333C17.0667 19.4388 17.3054 19.2 17.6 19.2H32V24C32 24.8837 32.7163 25.6 33.6 25.6H38.4V28.9104L36.6832 29.6533C36.7569 29.5628 36.798 29.4501 36.8 29.3333C36.8 29.0388 36.5612 28.8 36.2667 28.8H28.8C28.5054 28.8 28.2667 29.0388 28.2667 29.3333C28.2667 29.6279 28.5054 29.8667 28.8 29.8667H36.1861L33.7168 30.9333H19.2C18.9054 30.9333 18.6667 31.1721 18.6667 31.4667C18.6667 31.7612 18.9054 32 19.2 32H32.0037C32.0037 32.0085 32 32.0165 32 32.0256V33.0667H28.8C28.5054 33.0667 28.2667 33.3054 28.2667 33.6C28.2667 33.8945 28.5054 34.1333 28.8 34.1333H32V35.2H19.2C18.9054 35.2 18.6667 35.4388 18.6667 35.7333C18.6667 36.0279 18.9054 36.2667 19.2 36.2667H32V37.3333H28.8C28.5054 37.3333 28.2667 37.5721 28.2667 37.8667C28.2667 38.1612 28.5054 38.4 28.8 38.4H32V39.4667H19.2C18.9054 39.4667 18.6667 39.7054 18.6667 40C18.6667 40.2945 18.9054 40.5333 19.2 40.5333H32.0667C32.1197 40.8972 32.2101 41.2547 32.3365 41.6H28.8C28.5054 41.6 28.2667 41.8388 28.2667 42.1333C28.2667 42.4279 28.5054 42.6667 28.8 42.6667H32.8752C33.1272 43.0591 33.4285 43.4175 33.7717 43.7333H19.2C18.9054 43.7333 18.6667 43.9721 18.6667 44.2667C18.6667 44.5612 18.9054 44.8 19.2 44.8H35.2L38.1056 46.8683C38.0323 46.9089 37.9504 46.9312 37.8667 46.9333ZM46.9333 39.7381C46.9281 41.147 46.2431 42.4666 45.0939 43.2816L40 46.9077L34.9061 43.2811C33.7571 42.4662 33.072 41.1468 33.0667 39.7381V32.3781L34.032 31.9611L34.0421 31.9568L40 29.3808L46.9333 32.376V39.7381Z"/>
</mask>
<path d="M47.68 31.536L41.6 28.9104V17.6C41.6 16.7163 40.8836 16 40 16H19.7333C18.8497 16 18.1333 16.7163 18.1333 17.6V18.1333H17.6C16.7163 18.1333 16 18.8497 16 19.7333V46.4C16 47.2836 16.7163 48 17.6 48H37.8667C38.2981 47.999 38.7108 47.8234 39.0107 47.5131L39.448 47.824C39.7786 48.0587 40.2214 48.0587 40.552 47.824L45.712 44.1509C47.1424 43.1357 47.9945 41.4922 48 39.7381V32.0256C48.0003 31.8132 47.8746 31.6209 47.68 31.536ZM19.2 17.6C19.2 17.3054 19.4388 17.0667 19.7333 17.0667H40C40.2945 17.0667 40.5333 17.3054 40.5333 17.6V28.4496L40.2133 28.3104C40.0785 28.2523 39.9257 28.2523 39.7909 28.3104L39.4709 28.4496V25.0667C39.4709 25.0549 39.4651 25.0437 39.464 25.032C39.4613 24.9873 39.4527 24.9432 39.4384 24.9008C39.4347 24.8885 39.4352 24.8757 39.4304 24.864C39.4256 24.8523 39.4219 24.8523 39.4192 24.8459C39.3932 24.7878 39.3571 24.7349 39.3125 24.6896L32.9125 18.2896C32.8672 18.245 32.8143 18.2089 32.7563 18.1829C32.7493 18.1797 32.7445 18.1744 32.7381 18.1717C32.7317 18.1691 32.7136 18.1675 32.7019 18.1637C32.6589 18.1494 32.6143 18.1406 32.5691 18.1376C32.5557 18.1392 32.5451 18.1333 32.5333 18.1333H19.2V17.6ZM33.0667 19.9541L37.6459 24.5333H33.6C33.3054 24.5333 33.0667 24.2945 33.0667 24V19.9541ZM37.8667 46.9333H17.6C17.3054 46.9333 17.0667 46.6945 17.0667 46.4V19.7333C17.0667 19.4388 17.3054 19.2 17.6 19.2H32V24C32 24.8837 32.7163 25.6 33.6 25.6H38.4V28.9104L36.6832 29.6533C36.7569 29.5628 36.798 29.4501 36.8 29.3333C36.8 29.0388 36.5612 28.8 36.2667 28.8H28.8C28.5054 28.8 28.2667 29.0388 28.2667 29.3333C28.2667 29.6279 28.5054 29.8667 28.8 29.8667H36.1861L33.7168 30.9333H19.2C18.9054 30.9333 18.6667 31.1721 18.6667 31.4667C18.6667 31.7612 18.9054 32 19.2 32H32.0037C32.0037 32.0085 32 32.0165 32 32.0256V33.0667H28.8C28.5054 33.0667 28.2667 33.3054 28.2667 33.6C28.2667 33.8945 28.5054 34.1333 28.8 34.1333H32V35.2H19.2C18.9054 35.2 18.6667 35.4388 18.6667 35.7333C18.6667 36.0279 18.9054 36.2667 19.2 36.2667H32V37.3333H28.8C28.5054 37.3333 28.2667 37.5721 28.2667 37.8667C28.2667 38.1612 28.5054 38.4 28.8 38.4H32V39.4667H19.2C18.9054 39.4667 18.6667 39.7054 18.6667 40C18.6667 40.2945 18.9054 40.5333 19.2 40.5333H32.0667C32.1197 40.8972 32.2101 41.2547 32.3365 41.6H28.8C28.5054 41.6 28.2667 41.8388 28.2667 42.1333C28.2667 42.4279 28.5054 42.6667 28.8 42.6667H32.8752C33.1272 43.0591 33.4285 43.4175 33.7717 43.7333H19.2C18.9054 43.7333 18.6667 43.9721 18.6667 44.2667C18.6667 44.5612 18.9054 44.8 19.2 44.8H35.2L38.1056 46.8683C38.0323 46.9089 37.9504 46.9312 37.8667 46.9333ZM46.9333 39.7381C46.9281 41.147 46.2431 42.4666 45.0939 43.2816L40 46.9077L34.9061 43.2811C33.7571 42.4662 33.072 41.1468 33.0667 39.7381V32.3781L34.032 31.9611L34.0421 31.9568L40 29.3808L46.9333 32.376V39.7381Z" fill="url(#paint0_linear)"/>
<path d="M47.68 31.536L41.6 28.9104V17.6C41.6 16.7163 40.8836 16 40 16H19.7333C18.8497 16 18.1333 16.7163 18.1333 17.6V18.1333H17.6C16.7163 18.1333 16 18.8497 16 19.7333V46.4C16 47.2836 16.7163 48 17.6 48H37.8667C38.2981 47.999 38.7108 47.8234 39.0107 47.5131L39.448 47.824C39.7786 48.0587 40.2214 48.0587 40.552 47.824L45.712 44.1509C47.1424 43.1357 47.9945 41.4922 48 39.7381V32.0256C48.0003 31.8132 47.8746 31.6209 47.68 31.536ZM19.2 17.6C19.2 17.3054 19.4388 17.0667 19.7333 17.0667H40C40.2945 17.0667 40.5333 17.3054 40.5333 17.6V28.4496L40.2133 28.3104C40.0785 28.2523 39.9257 28.2523 39.7909 28.3104L39.4709 28.4496V25.0667C39.4709 25.0549 39.4651 25.0437 39.464 25.032C39.4613 24.9873 39.4527 24.9432 39.4384 24.9008C39.4347 24.8885 39.4352 24.8757 39.4304 24.864C39.4256 24.8523 39.4219 24.8523 39.4192 24.8459C39.3932 24.7878 39.3571 24.7349 39.3125 24.6896L32.9125 18.2896C32.8672 18.245 32.8143 18.2089 32.7563 18.1829C32.7493 18.1797 32.7445 18.1744 32.7381 18.1717C32.7317 18.1691 32.7136 18.1675 32.7019 18.1637C32.6589 18.1494 32.6143 18.1406 32.5691 18.1376C32.5557 18.1392 32.5451 18.1333 32.5333 18.1333H19.2V17.6ZM33.0667 19.9541L37.6459 24.5333H33.6C33.3054 24.5333 33.0667 24.2945 33.0667 24V19.9541ZM37.8667 46.9333H17.6C17.3054 46.9333 17.0667 46.6945 17.0667 46.4V19.7333C17.0667 19.4388 17.3054 19.2 17.6 19.2H32V24C32 24.8837 32.7163 25.6 33.6 25.6H38.4V28.9104L36.6832 29.6533C36.7569 29.5628 36.798 29.4501 36.8 29.3333C36.8 29.0388 36.5612 28.8 36.2667 28.8H28.8C28.5054 28.8 28.2667 29.0388 28.2667 29.3333C28.2667 29.6279 28.5054 29.8667 28.8 29.8667H36.1861L33.7168 30.9333H19.2C18.9054 30.9333 18.6667 31.1721 18.6667 31.4667C18.6667 31.7612 18.9054 32 19.2 32H32.0037C32.0037 32.0085 32 32.0165 32 32.0256V33.0667H28.8C28.5054 33.0667 28.2667 33.3054 28.2667 33.6C28.2667 33.8945 28.5054 34.1333 28.8 34.1333H32V35.2H19.2C18.9054 35.2 18.6667 35.4388 18.6667 35.7333C18.6667 36.0279 18.9054 36.2667 19.2 36.2667H32V37.3333H28.8C28.5054 37.3333 28.2667 37.5721 28.2667 37.8667C28.2667 38.1612 28.5054 38.4 28.8 38.4H32V39.4667H19.2C18.9054 39.4667 18.6667 39.7054 18.6667 40C18.6667 40.2945 18.9054 40.5333 19.2 40.5333H32.0667C32.1197 40.8972 32.2101 41.2547 32.3365 41.6H28.8C28.5054 41.6 28.2667 41.8388 28.2667 42.1333C28.2667 42.4279 28.5054 42.6667 28.8 42.6667H32.8752C33.1272 43.0591 33.4285 43.4175 33.7717 43.7333H19.2C18.9054 43.7333 18.6667 43.9721 18.6667 44.2667C18.6667 44.5612 18.9054 44.8 19.2 44.8H35.2L38.1056 46.8683C38.0323 46.9089 37.9504 46.9312 37.8667 46.9333ZM46.9333 39.7381C46.9281 41.147 46.2431 42.4666 45.0939 43.2816L40 46.9077L34.9061 43.2811C33.7571 42.4662 33.072 41.1468 33.0667 39.7381V32.3781L34.032 31.9611L34.0421 31.9568L40 29.3808L46.9333 32.376V39.7381Z" stroke="#FFBB89" stroke-width="0.62" mask="url(#path-2-outside-1)"/>
<path d="M46.0216 33.428C46.0221 33.1539 45.8598 32.9057 45.6086 32.7961L45.6081 32.7959L40.2753 30.4921C40.2752 30.4921 40.2751 30.492 40.275 30.492C40.0996 30.4155 39.9003 30.4155 39.7249 30.492C39.7248 30.492 39.7247 30.4921 39.7246 30.4921L34.3918 32.7959L34.3913 32.7961L34.1333 33.4278H33.9783V33.4279L33.9783 39.7381L33.9783 39.7388C33.9834 40.8525 34.5257 41.8951 35.4345 42.5387C35.4346 42.5387 35.4346 42.5387 35.4347 42.5388L39.6007 45.5044C39.6007 45.5044 39.6007 45.5044 39.6008 45.5044C39.8397 45.6745 40.1602 45.6745 40.3992 45.5044C40.3992 45.5044 40.3992 45.5044 40.3992 45.5044L44.5653 42.5388L44.4757 42.4123L44.5656 42.5385L44.5656 42.5386C45.4742 41.8949 46.0164 40.8524 46.0216 39.7389V39.7381V33.428ZM46.0216 33.428L45.8666 33.4278H46.0216V33.428ZM43.7671 41.42L43.7667 41.4204L40 44.0988L36.2333 41.4172L36.2328 41.4168C35.6863 41.0315 35.3595 40.4062 35.355 39.7376V33.88L39.9999 31.8739L44.645 33.8827V39.7377C44.6412 40.4073 44.3143 41.0339 43.7671 41.42Z" fill="url(#paint1_linear)" stroke="#FFBB89" stroke-width="0.31"/>
<path d="M37.2129 38.3827L37.2129 38.3827C37.0162 38.2351 36.7557 38.2037 36.5296 38.3004C36.3034 38.397 36.146 38.6069 36.1166 38.851C36.0871 39.0952 36.1902 39.3365 36.3869 39.484L36.4793 39.3609L36.3869 39.484L38.5202 41.084C38.5203 41.084 38.5203 41.084 38.5203 41.084C38.8177 41.3072 39.2385 41.2538 39.4708 40.9635L39.4708 40.9635L43.7375 35.6302C43.9751 35.3333 43.927 34.9 43.6301 34.6625C43.3332 34.4249 42.9 34.4729 42.6624 34.7698L42.6624 34.7699L38.8128 39.5827L37.2129 38.3827Z" fill="url(#paint2_linear)" stroke="#FFBB89" stroke-width="0.31"/>
<defs>
<linearGradient id="paint0_linear" x1="32" y1="16" x2="32" y2="48" gradientUnits="userSpaceOnUse">
<stop stop-color="#F58634"/>
<stop offset="1" stop-color="#A8518A" stop-opacity="0.63"/>
</linearGradient>
<linearGradient id="paint1_linear" x1="40" y1="30.5896" x2="40" y2="45.477" gradientUnits="userSpaceOnUse">
<stop stop-color="#F58634"/>
<stop offset="1" stop-color="#A8518A" stop-opacity="0.63"/>
</linearGradient>
<linearGradient id="paint2_linear" x1="40" y1="34.6665" x2="40" y2="41.0668" gradientUnits="userSpaceOnUse">
<stop stop-color="#F58634"/>
<stop offset="1" stop-color="#A8518A" stop-opacity="0.63"/>
</linearGradient>
</defs>
</svg>
